<?xml version="1.0" encoding="UTF-8"?>
<svg id="Layer_2" data-name="Layer 2" xmlns="http://www.w3.org/2000/svg" viewBox="0 0 255.15 144">
  <defs>
    <style>
      .cls-1 {
        fill: #ffffff;
      }
    </style>
  </defs>
  <g id="Layer_1-2" data-name="Layer 1">
    <path class="cls-1" d="M2.72,144c-1.22-5.55-1.82-10.78-2.34-16.28-.13-1.76-.28-3.53-.37-5.27-.02-.86.46-1.54.88-2.24,1.69-3.93,4.38-11.64,5.98-15.72C16.6,78.53,30.9,40.35,40.6,14.49,45.72,9.44,50.93,4.42,56.72,0c1.45,7.13,2.09,14.33,2.61,21.51-9.68,25.83-24.03,64.07-33.75,90-1.48,4.11-4.51,11.68-5.84,15.78-.15.8-.23,1.62-.81,2.26-1.22,1.25-2.49,2.49-3.75,3.73-4.01,3.8-7.9,7.35-12.47,10.72h0Z"/>
    <path class="cls-1" d="M74.72,0c4.57,3.37,8.46,6.92,12.47,10.72,1.26,1.24,2.53,2.47,3.75,3.73.58.64.66,1.46.81,2.26,1.31,4.07,4.36,11.65,5.84,15.78,9.73,25.97,24.06,64.13,33.75,90-.53,7.17-1.17,14.38-2.61,21.51-5.78-4.42-11-9.43-16.11-14.49-9.69-25.82-24.02-64.07-33.75-90-1.59-4.07-4.28-11.77-5.98-15.72-.41-.7-.89-1.38-.88-2.24.1-1.75.24-3.51.37-5.27.52-5.5,1.12-10.73,2.34-16.28h0Z"/>
    <path class="cls-1" d="M146.72,144c-.54-5.85-.49-11.32-.32-17.04.09-1.83.16-3.67.28-5.48.09-.89.65-1.55,1.16-2.23.5-.69.8-1.48,1.19-2.22,4.57-9.15,19.93-39.85,24.75-49.5,0,0,0,8.94,0,8.94-5.93-11.85-21.26-42.52-27-54-.14-3.12-.38-7.93-.37-11.07-.03-3.73.02-7.51.31-11.41,6.35,4.06,12.2,8.77,17.94,13.53,7.01,13.92,22.12,44.3,29.24,58.47,0,0-2.24,4.47-2.24,4.47-5.55,11.24-20.61,40.91-25.81,51.78-.25.81-.44,1.66-1.09,2.27-1.38,1.18-2.81,2.35-4.22,3.52-4.48,3.56-8.82,6.88-13.82,9.96h0Z"/>
    <path class="cls-1" d="M254.72,0c.54,5.85.49,11.32.32,17.04-.09,1.83-.16,3.67-.28,5.48-.09.89-.65,1.55-1.16,2.23-.5.69-.8,1.48-1.19,2.22-4.57,9.15-19.93,39.85-24.75,49.5,0,0,0-8.94,0-8.94,5.93,11.85,21.26,42.52,27,54,.14,3.12.38,7.93.37,11.07.03,3.73-.02,7.51-.31,11.41-6.35-4.06-12.2-8.77-17.94-13.53-7.01-13.92-22.12-44.3-29.24-58.47,0,0,2.24-4.47,2.24-4.47,5.55-11.24,20.61-40.91,25.81-51.78.25-.81.44-1.66,1.09-2.27,1.38-1.18,2.81-2.35,4.22-3.52,4.48-3.56,8.82-6.88,13.82-9.96h0Z"/>
    <path class="cls-1" d="M38.72,99c1.94-3.53,4.28-6.98,6.75-10.11.28-.32.56-.11.84.04.28.13.56.05.84.07,1.06,0,3.97,0,5.06,0,9.73,0,24.05,0,33.75,0,2.25,3.04,4.5,5.99,6.75,10-2.25,4.01-4.5,6.96-6.75,10-9.68,0-24.03,0-33.75,0-1.1,0-3.99,0-5.06,0-.28.02-.56-.06-.84.07-.28.14-.56.35-.84.04-2.47-3.13-4.81-6.58-6.75-10.11h0Z"/>
  </g>
</svg>
